<svg xmlns="http://www.w3.org/2000/svg" viewBox="0 0 1200 800"><defs><style>.cls-1{fill:#050505;}.cls-2{fill:#fff;}</style></defs><g id="Layer_2" data-name="Layer 2"><g id="Layer_1-2" data-name="Layer 1"><rect class="cls-1" width="1200" height="800"/><rect class="cls-1" y="400" width="1200" height="400"/><path class="cls-2" d="M566.18,411.39q1.94-6,8.67-14.76l14.24-18.38a57.18,57.18,0,0,0,7.25-11.52,25.52,25.52,0,0,0,2.07-10.23q0-8.28-4.53-13.08T580,338.63q-9.31,0-13.59,5.05t-4.53,15.41H530.58q.51-24.34,13.46-37t37-12.68q15,0,26.54,5.95a43,43,0,0,1,17.73,16.44,45.52,45.52,0,0,1,6.22,23.69,46.62,46.62,0,0,1-3.11,17.22,70.87,70.87,0,0,1-10.1,17l-15,20.2a36.68,36.68,0,0,0-5.56,9.45,32,32,0,0,0-1.43,10.49v10.87h-32.1v-13.2Q564.24,417.34,566.18,411.39ZM597.12,458v32.62H563.2V458Z"/></g></g></svg>