<?xml version="1.0" encoding="utf-8"?>
<!-- Generator: Adobe Illustrator 25.2.1, SVG Export Plug-In . SVG Version: 6.00 Build 0)  -->
<svg version="1.1" id="Layer_1" xmlns="http://www.w3.org/2000/svg" xmlns:xlink="http://www.w3.org/1999/xlink" x="0px" y="0px"
	 viewBox="0 0 1200 800" style="enable-background:new 0 0 1200 800;" xml:space="preserve">
<style type="text/css">
	.st0{fill:#050505;}
	.st1{fill:#FFFFFF;}
</style>
<g>
	<rect y="0" class="st0" width="1200" height="800"/>
	<rect y="400" class="st0" width="1200" height="400"/>
	<g>
		<path class="st1" d="M566.2,411.4c1.3-4,4.2-8.9,8.7-14.8l14.2-18.4c3.5-4.5,5.9-8.3,7.2-11.5s2.1-6.6,2.1-10.2
			c0-5.5-1.5-9.9-4.5-13.1s-7.6-4.8-13.9-4.8s-10.7,1.7-13.6,5c-2.8,3.4-4.4,8.5-4.5,15.4h-31.3c0.3-16.2,4.8-28.6,13.5-37
			c8.6-8.5,21-12.7,37-12.7c10,0,18.9,2,26.5,6c7.7,4,13.6,9.5,17.7,16.4c4.1,7,6.2,14.9,6.2,23.7c0,6.2-1,12-3.1,17.2
			c-2.1,5.3-5.4,10.9-10.1,17l-15,20.2c-2.8,3.6-4.6,6.8-5.6,9.5c-0.9,2.7-1.4,6.2-1.4,10.5v10.9h-32.1v-13.2
			C564.2,420.7,564.9,415.4,566.2,411.4z M597.1,458v32.6h-33.9V458H597.1z"/>
	</g>
</g>
</svg>
